<svg width="557" height="398" viewBox="0 0 557 398" fill="none" xmlns="http://www.w3.org/2000/svg">
<rect x="19" y="155" width="289" height="178.226" rx="10" fill="#607693"/>
<rect x="19" y="155" width="272" height="178.226" rx="10" fill="#264067"/>
<rect x="74" y="196.756" width="162" height="95.7327" rx="10" fill="#607693"/>
<rect x="74" y="196.756" width="151" height="95.7327" rx="10" fill="#4D5D80"/>
<rect x="125" y="223.235" width="49" height="138.507" fill="#607693"/>
<rect x="125" y="223.235" width="39" height="138.507" fill="#212B57"/>
<rect x="63" y="361.742" width="173" height="14.2581" fill="#607693"/>
<rect x="63" y="361.742" width="162" height="14.2581" fill="#212B57"/>
<path d="M352.447 170.518L531.5 170.518C555.415 182.718 560.099 200.424 553.717 233.782L522.253 376H306L352.447 170.518Z" fill="#C7C7D3"/>
<path d="M352.447 170.518L531.5 170.518C555.415 182.718 560.099 200.424 553.717 233.782L522.253 376H306L352.447 170.518Z" fill="#C7C7D3"/>
<path d="M524 170H532.5C556.415 182.2 560.099 200.424 553.717 233.782L522.253 376H466C490.596 265.873 505.982 179.793 524 170Z" fill="#E0E0E9"/>
<path d="M524 170H532.5C556.415 182.2 560.099 200.424 553.717 233.782L522.253 376H466C490.596 265.873 505.982 179.793 524 170Z" fill="#E0E0E9"/>
<path d="M418.5 200L457 171H476C469.299 180.354 460.273 188.71 434.5 209L430.5 230C464.118 227.263 477.645 227.374 481 234C489.198 258.572 481.267 285.245 448.5 352H437L434.5 377.5H415.5L430.5 281L411 234L418.5 200Z" fill="#7C8FB8"/>
<path d="M308 258C327.543 242.353 339.121 233.412 359.5 227C369.143 228.146 372.704 229.458 378.5 232C372.949 245.348 372.449 250.318 378.5 252.5C394.445 253.734 401.979 247.542 414.5 232L431.5 228.5L426 342L418 376.5H304C312.483 344.408 318.031 326.439 331.5 294.5C323.12 303.464 317.598 308.184 308 316V258Z" fill="#212B57"/>
<path d="M432 228C450.02 225.687 458.098 227.161 466.5 238C470.625 247.216 471.918 254.096 469 266.5C457.843 297.756 450.521 314.184 436.5 342.5C411.301 342.04 398.927 338.124 381 322.5C393.808 278.725 404.79 257.855 432 228Z" fill="#212B57"/>
<path d="M378.5 324L376 319L403 264L382 321L384.5 324C383.862 330.841 370.323 335.484 333 347L378.5 324Z" fill="#151F4C"/>
<path d="M308 306.5C322.086 295.014 329.363 284.467 344.5 263C339.679 275.8 336.886 282.869 331.5 295C322.418 305.941 318.051 310.199 308 318V306.5Z" fill="#020D3B"/>
<path d="M228 376C228.462 357.405 233.5 350.682 254.5 348C295.747 350.523 302.488 358.115 303 376H228Z" fill="#3C3C42"/>
<path d="M234.5 352L247.528 341C272.277 342.42 285.088 345.741 306.528 355C330.301 349.933 346.285 344.864 380.528 331C382.128 330.048 383.496 328.104 385.028 325C392.839 335.308 424.374 342.553 426 341.5C417.533 368.307 360.338 385.004 287 373C280.579 371.949 275.447 366 275.447 366C269.947 363.5 261.63 369.893 258.475 373C255.32 376.107 254.684 371.703 255.5 370C259.629 363.9 261.038 362.975 268.528 360C262.114 359.066 257.271 363.719 246.528 371.5C243.098 372.976 241.26 372.41 242 368.5C245.983 363.598 252.623 360.545 260.028 356C250.252 359.616 244.528 364.5 238.028 368.5C234.988 368.744 233.27 367.457 233.5 365C241.937 356.379 246.19 353.641 257.5 349.5L249.5 348.5L240.528 354C238.255 354.613 233.603 354.723 234.5 352Z" fill="#928C97"/>
<path d="M234.5 351.5L247 340C271.749 341.42 284.56 344.741 306 354C329.774 348.933 345.757 343.864 380 330C381.6 329.048 382.968 327.104 384.5 324C391.664 332.221 405.206 336.396 407.5 337.5C392.424 357.545 360.448 376.513 291.5 369C285.032 368.295 278 363.5 278 363.5C272.5 361 261.655 368.393 258.5 371.5C255.345 374.607 254.684 371.203 255.5 369.5C259.629 363.4 260.511 361.975 268 359C260.687 357.281 255.79 361.888 246 370.5C242.57 371.976 241.26 371.91 242 368C245.983 363.098 252.095 358.545 259.5 354C249.724 357.616 244 362.5 237.5 366.5C234.461 366.744 233.27 367.457 233.5 365C241.937 356.379 250.19 351.641 261.5 347.5L249.5 345.5L240 353C237.728 353.613 233.603 354.223 234.5 351.5Z" fill="#EAC2AD"/>
<path d="M474.059 138.234C496.238 145.567 503.775 150.4 515.345 159.298C515.98 200.512 506.46 219.346 477.09 247.576C480.54 205.182 479.732 187.687 472.11 170.633C466.914 158.037 462.659 152.551 453.056 145.1L474.059 138.234Z" fill="#392B28"/>
<path d="M421.5 57.5C454.327 57.6732 474.237 55.2486 491 72C495.644 97.5229 494.86 112.347 487.5 141C465.848 168.346 452.244 181.895 423 200C431.579 164.724 436.506 145.035 427.5 96.5L421.5 57.5Z" fill="#392B28"/>
<path d="M451.5 117C459.062 117.158 462.937 125.558 469.5 148.5L486.5 141.5C466.153 169.199 454.68 181.404 423 199.5L425 188.5C441.713 169.778 447.708 158.333 448 135L451.5 117Z" fill="#1A1616"/>
<path d="M314 87H329V144H314C306.679 120.902 306.413 108.393 314 87Z" fill="#1A1616"/>
<path d="M464 153.5C464 167.859 453.083 185.742 439 185.742C424.917 185.742 429 181.859 429 167.5C429 153.141 429.917 135.5 444 135.5C458.083 135.5 464 139.141 464 153.5Z" fill="#EAC2AD"/>
<path d="M372 213.5C372 213.5 386.5 218 412.5 189C438.5 160 414 233.5 414 233.5L377 237L372 213.5Z" fill="#EAC2AD"/>
<path d="M415.5 230C415.5 239.389 396.77 255 386 255C375.231 255 374 252.389 374 243C376 238 375.23 234 386 234C396.77 234 415.5 220.611 415.5 230Z" fill="#EAC2AD"/>
<path d="M372.5 214C371.638 208.486 424.937 188.5 424.937 188.5C426.603 209.505 378.2 242.037 376.5 234.5C374.8 226.963 373.362 219.514 372.5 214Z" fill="#D49278"/>
<path d="M320.5 81.5L450 88L430.5 182C394.5 226 345.5 224.5 313.5 182L320.5 81.5Z" fill="#EAC2AD"/>
<path d="M352.434 146.77C352.986 145.898 354.337 146.331 354.278 147.362L353.463 161.557C353.433 162.086 352.995 162.5 352.465 162.5H344.314C343.527 162.5 343.048 161.632 343.469 160.966L352.434 146.77Z" fill="white"/>
<path d="M362.087 173.119C362.087 175.328 357.781 175.119 353.087 175.119C348.392 175.119 345.623 175.119 344.087 173.119C341.83 170.181 341.076 164.874 348.087 165.619C352.749 164.614 362.064 170.213 362.087 173.119Z" fill="#CB7A5D"/>
<path d="M441.5 144.506C448.422 144.432 451.669 145.017 456 147.506C460.101 150.768 460.394 153.83 459 162.006C458.551 150.105 456.049 148.502 438 151.506L441.5 144.506Z" fill="#D28C70"/>
<path d="M438 151.006L441.5 144.506C444.628 147.689 447.5 150.506 447.5 155.006C447.5 159.506 446.306 161.573 444 163.006C440.642 164.243 438.786 164.481 435.5 164.506C440.564 163.058 442.699 161.822 443 157.506C442.471 154.44 441.353 153.027 438 151.006Z" fill="#D28C70"/>
<path d="M366.775 202.237C367.428 200.843 369.323 200.404 370.516 201.377C375.238 205.231 380.505 206.333 389.327 209.373C390.761 209.867 391.11 211.719 389.937 212.681C378.39 222.142 369.57 224.017 355.263 214.857C353.993 214.045 354.123 212.179 355.47 211.503C361.543 208.455 364.62 206.838 366.775 202.237Z" fill="#392B28"/>
<path d="M375.5 136.369C380 129.869 398.325 127.171 407 131.869C388.983 132.962 381.935 133.93 375.5 136.369Z" fill="#493E3A"/>
<circle cx="390" cy="138.369" r="8" fill="#493E3A"/>
<path d="M323.5 132.696C332.487 131.677 336.052 134.598 340.5 142.196C336.035 136.944 327.5 135.696 323.5 134.196V132.696Z" fill="#564B46"/>
<path d="M336.757 140.131C336.757 143.444 334.519 146.131 331.757 146.131C329.485 146.019 328.111 143.37 327.5 140.196C326.791 134.509 329.083 132.003 332.5 134.196C335.261 134.196 336.757 136.817 336.757 140.131Z" fill="#564B46"/>
<path d="M353.122 188.607C369.585 185.111 374.275 185.951 379.122 191.233C373.083 189.361 356.771 189.489 353.122 190.107C349.473 190.725 353.122 188.607 353.122 188.607Z" fill="#A5614C"/>
<path d="M364 196C368.95 195.204 370.589 194.265 373.5 193.5L373 194.5C370.379 196.233 368.734 196.706 363.5 196.5L364 196Z" fill="#CB7A5D"/>
<path d="M427 78H452.239C454.422 108.404 453.249 131.538 430.292 165C434.203 130.722 435.491 111.557 427 78Z" fill="#392B28"/>
<path d="M290.5 43C326.71 19.1104 348.623 8.69481 392.5 0C416.551 3.66373 429.026 18.7988 444.5 50C449.853 68.9709 449.849 81.0049 426.5 99C349.558 101.028 283.565 70.0723 322.5 156C308.957 141.337 282.659 96.5226 279 78.5L290.5 43Z" fill="#392B28"/>
<path d="M285.5 59.0001C323.552 40.356 340.596 40.7252 365 56.5001C382.394 68.9682 394.087 74.1785 422 77C406.965 78.5975 398.535 79.1164 383.5 77C346.651 61.3092 336.146 58.3579 324 60.5C302.994 64.4221 293.999 70.4355 283.5 87.5001C280.784 83.9713 279.87 82.0011 279.5 78.5C280.767 70.7985 282.047 66.5243 285.5 59.0001Z" fill="#1A1616"/>
<path d="M426 98.5C450.407 82.7852 447.092 71.0622 446 56.5C448.61 67.2395 453.931 76.7607 450 87.5C447.355 97.5913 444.021 102.906 436 112C438.558 121.52 439.089 127.108 438.5 137.5C436.847 147.852 434.728 152.741 431 161.5C435.046 133.662 433.708 119.997 426 98.5Z" fill="#1A1616"/>
<path d="M484.255 228C497.673 212.466 505.427 200.5 506.255 182C507.027 193.13 506.787 199.258 502.255 209.5C496.389 218.924 492.177 222.463 484.255 228Z" fill="#1A1616"/>
<path d="M444 51.9264C446.638 43.0569 448.564 39.9875 452.17 35.2409C470.276 34.0198 478.809 37.3084 492 48.1587C473.267 47.8059 465.595 48.5356 458.298 51.9264C452.897 54.2611 450.523 55.5587 447.5 59.5L444 51.9264Z" fill="#392B28"/>
<path d="M346.211 140.515C346.211 150.456 338.376 158.515 328.711 158.515C319.046 158.515 308.712 150.456 308.712 140.515C305.771 126.212 316.404 118.991 328.711 122.515C338.376 122.515 346.211 130.574 346.211 140.515Z" fill="white" fill-opacity="0.12"/>
<path d="M418 140C418 149.941 396.659 159.384 386.994 159.384C377.329 159.384 365 151.441 365 141.5C363.963 126.664 395.263 120.089 410 121C418.68 122.598 417.039 131.621 418 140Z" fill="white" fill-opacity="0.12"/>
<path d="M331.933 145.853C332.399 147.153 331.302 148.735 329.483 149.388C327.664 150.041 325.811 149.517 325.344 148.217C324.878 146.918 325.975 145.335 327.794 144.682C329.614 144.029 331.467 144.554 331.933 145.853Z" fill="white" fill-opacity="0.38"/>
<path d="M331.933 145.853C332.399 147.153 331.302 148.735 329.483 149.388C327.664 150.041 325.811 149.517 325.344 148.217C324.878 146.918 325.975 145.335 327.794 144.682C329.614 144.029 331.467 144.554 331.933 145.853Z" fill="white" fill-opacity="0.38"/>
<path d="M324.5 132.5C324.5 136.918 320.918 140.5 316.5 140.5C312.082 140.5 308.5 136.918 308.5 132.5C308.5 128.082 312.082 124.5 316.5 124.5C320.918 124.5 324.5 128.082 324.5 132.5Z" fill="white" fill-opacity="0.38"/>
<path d="M324.5 132.5C324.5 136.918 320.918 140.5 316.5 140.5C312.082 140.5 308.5 136.918 308.5 132.5C308.5 128.082 312.082 124.5 316.5 124.5C320.918 124.5 324.5 128.082 324.5 132.5Z" fill="white" fill-opacity="0.38"/>
<path d="M401.966 147.425C402.333 149.041 400.885 150.748 398.731 151.237C396.576 151.727 394.532 150.814 394.165 149.199C393.798 147.583 395.246 145.876 397.4 145.387C399.555 144.897 401.599 145.81 401.966 147.425Z" fill="white" fill-opacity="0.38"/>
<path d="M401.966 147.425C402.333 149.041 400.885 150.748 398.731 151.237C396.576 151.727 394.532 150.814 394.165 149.199C393.798 147.583 395.246 145.876 397.4 145.387C399.555 144.897 401.599 145.81 401.966 147.425Z" fill="white" fill-opacity="0.38"/>
<path d="M389.5 134C389.5 139.799 384.799 144.5 379 144.5C373.201 144.5 368.5 139.799 368.5 134C368.5 128.201 373.201 123.5 379 123.5C384.799 123.5 389.5 128.201 389.5 134Z" fill="white" fill-opacity="0.38"/>
<path d="M389.5 134C389.5 139.799 384.799 144.5 379 144.5C373.201 144.5 368.5 139.799 368.5 134C368.5 128.201 373.201 123.5 379 123.5C384.799 123.5 389.5 128.201 389.5 134Z" fill="white" fill-opacity="0.38"/>
<path d="M340.809 126.5L349.309 134.757V140.757L338.309 133L340.809 126.5Z" fill="#D28C70"/>
<path d="M314.5 157.434L335.309 156.434C336.592 157.741 348.377 145.022 340.809 134.757H349.309C349.309 134.757 349.46 132.389 349.309 146.257C349.158 160.125 322.809 167.934 314.5 157.434Z" fill="#D28C70"/>
<path d="M349.309 140.361C357.901 139.415 355.37 139.366 363.962 140.361V146.361C354.512 145.297 357.034 145.195 349.309 146.361V140.361Z" fill="#D28C70"/>
<path d="M415.309 129.257L429.309 133.257C429.342 138.078 430.581 133.706 427.809 138.257L415.309 138.257L415.309 129.257Z" fill="#D28C70"/>
<path d="M380.809 158.257C402.066 163.529 415.309 149.757 415.309 138.257C415.309 126.757 422.309 138.257 422.309 138.257C412.38 171.092 387.038 166.195 380.309 164.257L380.809 158.257Z" fill="#D28C70"/>
<path d="M299.5 128.823C325.931 116.322 337.443 122.938 348.5 134.323V140.323C332.452 127.811 321.48 122.623 299.5 135.323V128.823Z" fill="#141010"/>
<path d="M299.5 134.323L311 129.323C310.172 136.599 311.158 145.328 317.5 151.823C324.023 157.07 327.757 157.269 336 154.323C342.335 147.604 343.647 143.198 340 134.323H348.5C348.5 134.323 348.651 131.955 348.5 145.823C348.349 159.691 313.007 175.961 305.5 140.823H302.5L299.5 134.323Z" fill="#141010"/>
<path d="M348.5 139.927C357.092 138.981 354.561 138.932 363.153 139.927V145.927C353.703 144.863 356.225 144.761 348.5 145.927V139.927Z" fill="#141010"/>
<path d="M362 135.323H367.5C369.15 147.921 371.602 153.286 380.5 157.823L379.5 163.823C365.945 155.593 361.963 149.813 362 135.323Z" fill="#141010"/>
<path d="M361.5 132.323C384.265 117.225 399.436 115.996 430.5 125.823C430.533 130.644 429.772 133.272 427 137.823H414.5V128.823C402.5 120.823 373 126.823 361.5 141.323V132.323Z" fill="#141010"/>
<path d="M380 157.823C401.257 163.095 414.5 149.323 414.5 137.823C414.5 126.323 421.5 137.823 421.5 137.823C411.571 170.658 386.229 165.761 379.5 163.823L380 157.823Z" fill="#141010"/>
<path d="M298.5 126.823C324.931 114.322 336.443 120.938 347.5 132.323V138.323C331.452 125.811 320.48 120.623 298.5 133.323V126.823Z" fill="#282424"/>
<path d="M298.5 132.323L310 127.323C309.172 134.599 310.158 143.328 316.5 149.823C323.023 155.07 326.757 155.269 335 152.323C341.335 145.604 342.647 141.198 339 132.323H347.5C347.5 132.323 347.651 129.955 347.5 143.823C347.349 157.691 312.007 173.961 304.5 138.823H301.5L298.5 132.323Z" fill="#282424"/>
<path d="M347.5 137.927C356.092 136.981 353.561 136.932 362.153 137.927V143.927C352.703 142.863 355.225 142.761 347.5 143.927V137.927Z" fill="#282424"/>
<path d="M361 133.323H366.5C368.15 145.921 370.602 151.286 379.5 155.823L378.5 161.823C364.945 153.593 360.963 147.813 361 133.323Z" fill="#282424"/>
<path d="M360.5 130.323C383.265 115.225 398.436 113.996 429.5 123.823C429.533 128.644 428.772 131.272 426 135.823H413.5V126.823C401.5 118.823 372 124.823 360.5 139.323V130.323Z" fill="#282424"/>
<path d="M379 155.823C400.257 161.095 413.5 147.323 413.5 135.823C413.5 124.323 420.5 135.823 420.5 135.823C410.571 168.658 385.229 163.761 378.5 161.823L379 155.823Z" fill="#282424"/>
<circle cx="303" cy="131" r="2.5" fill="white"/>
<circle cx="422.5" cy="128.5" r="3" fill="white"/>
<path d="M316 114.549C328 101.049 347.5 110.549 349.5 113.57C351.5 116.591 349.277 121.064 348.5 120.049C347.723 119.034 327.73 111.526 315.5 117.57L316 114.549Z" fill="#D28C70"/>
<path d="M316 113.549C328 100.049 347.5 109.549 349.5 112.57C351.5 115.591 349.277 120.064 348.5 119.049C347.723 118.034 327.73 110.526 315.5 116.57L316 113.549Z" fill="#392B28"/>
<path d="M367.035 112.435C377.281 99.7723 409.213 105.948 422.535 118.935L425.535 122.435C405.698 114.723 390.597 111.046 371.035 120.435C366.745 119.253 365.72 116.534 367.035 112.435Z" fill="#D28C70"/>
<path d="M366.393 111.036C376.638 98.3727 408.57 104.548 421.893 117.536L424.893 121.036C405.056 113.323 389.955 109.646 370.393 119.036C366.102 117.854 365.077 115.135 366.393 111.036Z" fill="#392B28"/>
<path d="M446 57.5C461.563 57.5608 471.625 81.9015 462.5 128.5L442 122.5C451.19 92.0727 452.834 72.5163 446 57.5Z" fill="black"/>
<ellipse cx="25.744" cy="34.7667" rx="25.744" ry="34.7667" transform="matrix(0.96412 0.265466 -0.249654 0.968335 427.359 114)" fill="#3C3C42"/>
<ellipse cx="20.5123" cy="27.6109" rx="20.5123" ry="27.6109" transform="matrix(0.936525 0.350602 -0.3308 0.943701 436.203 121.816)" fill="black"/>
<rect y="376" width="548" height="22" fill="#ECECF5"/>
</svg>
